# Blender v2.79 (sub 0) OBJ File: ''
# www.blender.org
mtllib large_cube.mtl
o Cube
v 10.439736 -10.439736 -10.439735
v 10.439736 -10.439736 10.439736
v -10.439737 -10.439736 10.439734
v -10.439733 -10.439736 -10.439740
v 10.439741 10.439736 -10.439731
v 10.439730 10.439736 10.439743
v -10.439740 10.439736 10.439733
v -10.439735 10.439736 -10.439736
vn 0.0000 -1.0000 -0.0000
vn 0.0000 1.0000 -0.0000
vn 1.0000 -0.0000 0.0000
vn -0.0000 -0.0000 1.0000
vn -1.0000 -0.0000 -0.0000
vn 0.0000 0.0000 -1.0000
usemtl Material
s off
f 1//1 2//1 3//1 4//1
f 5//2 8//2 7//2 6//2
f 1//3 5//3 6//3 2//3
f 2//4 6//4 7//4 3//4
f 3//5 7//5 8//5 4//5
f 5//6 1//6 4//6 8//6
