# Blender v2.79 (sub 0) OBJ File: ''
# www.blender.org
mtllib cone_with_bad_edges.mtl
o Cone
v 0.000000 -1.000000 -1.000000
v 0.195090 -1.000000 -0.980785
v 0.382683 -1.000000 -0.923880
v 0.555570 -1.000000 -0.831470
v 0.707107 -1.000000 -0.707107
v 0.831470 -1.000000 -0.555570
v 0.923880 -1.000000 -0.382683
v 0.980785 -1.000000 -0.195090
v 1.000000 -1.000000 -0.000000
v 0.980785 -1.000000 0.195090
v 0.923880 -1.000000 0.382683
v 0.831470 -1.000000 0.555570
v 0.707107 -1.000000 0.707107
v 0.555570 -1.000000 0.831470
v 0.382683 -1.000000 0.923880
v 0.195090 -1.000000 0.980785
v -0.000000 -1.000000 1.000000
v -0.195091 -1.000000 0.980785
v -0.382684 -1.000000 0.923879
v -0.555571 -1.000000 0.831469
v -0.707107 -1.000000 0.707106
v -0.831470 -1.000000 0.555570
v -0.923880 -1.000000 0.382683
v -0.980785 -1.000000 0.195089
v -1.000000 -1.000000 -0.000001
v -0.980785 -1.000000 -0.195091
v -0.923879 -1.000000 -0.382684
v -0.831469 -1.000000 -0.555571
v -0.707106 -1.000000 -0.707108
v -0.555569 -1.000000 -0.831470
v -0.382682 -1.000000 -0.923880
v -0.195089 -1.000000 -0.980786
v 0.069430 0.288225 0.349049
v -0.000000 0.288225 0.355888
v 0.136192 0.288225 0.328797
v -0.251651 0.288225 0.251651
v -0.197721 0.288225 0.295910
v 0.197721 0.288225 0.295910
v -0.069430 0.288225 0.349049
v -0.136192 0.288225 0.328797
v 0.295910 0.288225 -0.197721
v 0.328797 0.288225 -0.136192
v 0.349049 0.288225 -0.069430
v 0.251651 0.288225 0.251651
v 0.355888 0.288225 -0.000000
v 0.349049 0.288225 0.069430
v 0.251651 0.288225 -0.251651
v 0.328797 0.288225 0.136192
v 0.295910 0.288225 0.197721
v 0.136192 0.288225 -0.328797
v 0.197721 0.288225 -0.295910
v 0.069430 0.288225 -0.349049
v 0.000000 0.288225 -0.355888
v -0.069430 0.288225 -0.349049
v -0.349049 0.288225 0.069430
v -0.355888 0.288225 -0.000000
v -0.328797 0.288225 0.136192
v -0.295910 0.288225 0.197720
v -0.251650 0.288225 -0.251651
v -0.197720 0.288225 -0.295910
v -0.295910 0.288225 -0.197721
v -0.349049 0.288225 -0.069431
v -0.136192 0.288225 -0.328798
v -0.328797 0.288225 -0.136193
vn 0.0878 0.4455 -0.8910
vn 0.2599 0.4455 -0.8567
vn 0.4220 0.4455 -0.7896
vn 0.5680 0.4455 -0.6921
vn 0.6921 0.4455 -0.5680
vn 0.7896 0.4455 -0.4220
vn 0.8567 0.4455 -0.2599
vn 0.8910 0.4455 -0.0878
vn 0.8910 0.4455 0.0878
vn 0.8567 0.4455 0.2599
vn 0.7896 0.4455 0.4220
vn 0.6921 0.4455 0.5680
vn 0.5680 0.4455 0.6921
vn 0.4220 0.4455 0.7896
vn 0.2599 0.4455 0.8567
vn 0.0878 0.4455 0.8910
vn -0.0878 0.4455 0.8910
vn -0.2599 0.4455 0.8567
vn -0.4220 0.4455 0.7896
vn -0.5680 0.4455 0.6921
vn -0.6921 0.4455 0.5680
vn -0.7896 0.4455 0.4220
vn -0.8567 0.4455 0.2599
vn -0.8910 0.4455 0.0878
vn -0.8910 0.4455 -0.0878
vn -0.8567 0.4455 -0.2599
vn -0.7896 0.4455 -0.4220
vn -0.6921 0.4455 -0.5680
vn -0.5680 0.4455 -0.6921
vn -0.4220 0.4455 -0.7896
vn -0.2599 0.4455 -0.8567
vn -0.0878 0.4455 -0.8910
vn 0.0000 -1.0000 0.0000
usemtl None
s off
f 1//1 52//1 2//1
f 52//2 3//2 2//2
f 50//3 4//3 3//3
f 51//4 5//4 4//4
f 47//5 6//5 5//5
f 41//6 7//6 6//6
f 42//7 8//7 7//7
f 8//8 45//8 9//8
f 45//9 10//9 9//9
f 46//10 11//10 10//10
f 48//11 12//11 11//11
f 49//12 13//12 12//12
f 44//13 14//13 13//13
f 38//14 15//14 14//14
f 35//15 16//15 15//15
f 33//16 17//16 16//16
f 34//17 18//17 17//17
f 18//18 40//18 19//18
f 40//19 20//19 19//19
f 37//20 21//20 20//20
f 36//21 22//21 21//21
f 58//22 23//22 22//22
f 23//23 55//23 24//23
f 55//24 25//24 24//24
f 56//25 26//25 25//25
f 62//26 27//26 26//26
f 64//27 28//27 27//27
f 61//28 29//28 28//28
f 59//29 30//29 29//29
f 60//30 31//30 30//30
f 31//31 54//31 32//31
f 54//32 1//32 32//32
f 8//33 16//33 24//33
f 1//1 53//1 52//1
f 52//2 50//2 3//2
f 50//3 51//3 4//3
f 51//4 47//4 5//4
f 47//5 41//5 6//5
f 41//6 42//6 7//6
f 42//7 43//7 8//7
f 8//8 43//8 45//8
f 45//9 46//9 10//9
f 46//10 48//10 11//10
f 48//11 49//11 12//11
f 49//12 44//12 13//12
f 44//13 38//13 14//13
f 38//14 35//14 15//14
f 35//15 33//15 16//15
f 33//16 34//16 17//16
f 34//17 39//17 18//17
f 18//18 39//18 40//18
f 40//19 37//19 20//19
f 37//20 36//20 21//20
f 36//21 58//21 22//21
f 58//22 57//22 23//22
f 23//23 57//23 55//23
f 55//24 56//24 25//24
f 56//25 62//25 26//25
f 62//26 64//26 27//26
f 64//27 61//27 28//27
f 61//28 59//28 29//28
f 59//29 60//29 30//29
f 60//30 63//30 31//30
f 31//31 63//31 54//31
f 54//32 53//32 1//32
f 32//33 1//33 2//33
f 2//33 3//33 4//33
f 4//33 5//33 6//33
f 6//33 7//33 4//33
f 7//33 8//33 4//33
f 8//33 9//33 10//33
f 10//33 11//33 8//33
f 11//33 12//33 8//33
f 12//33 13//33 16//33
f 13//33 14//33 16//33
f 14//33 15//33 16//33
f 16//33 17//33 18//33
f 18//33 19//33 20//33
f 20//33 21//33 22//33
f 22//33 23//33 24//33
f 24//33 25//33 26//33
f 26//33 27//33 28//33
f 28//33 29//33 32//33
f 29//33 30//33 32//33
f 30//33 31//33 32//33
f 32//33 2//33 4//33
f 16//33 18//33 24//33
f 18//33 20//33 24//33
f 20//33 22//33 24//33
f 24//33 26//33 32//33
f 26//33 28//33 32//33
f 32//33 4//33 8//33
f 8//33 12//33 16//33
f 32//33 8//33 24//33
